<svg xmlns="http://www.w3.org/2000/svg" xmlns:xlink="http://www.w3.org/1999/xlink" width="336" zoomAndPan="magnify" viewBox="0 0 252 143.999998" height="192" preserveAspectRatio="xMidYMid meet" version="1.0"><defs><g/><clipPath id="a0591c81a1"><path d="M 92 19 L 132 19 L 132 129 L 92 129 Z M 92 19 " clip-rule="nonzero"/></clipPath><clipPath id="2e424a9242"><path d="M 86.332031 -1.007812 L 224.894531 11.757812 L 213.4375 136.101562 L 74.875 123.335938 Z M 86.332031 -1.007812 " clip-rule="nonzero"/></clipPath><clipPath id="6fc47027d2"><path d="M 86.332031 -1.007812 L 224.894531 11.757812 L 213.4375 136.101562 L 74.875 123.335938 Z M 86.332031 -1.007812 " clip-rule="nonzero"/></clipPath><clipPath id="d7b587681c"><path d="M 84 16 L 219 16 L 219 86 L 84 86 Z M 84 16 " clip-rule="nonzero"/></clipPath><clipPath id="bcd57efb09"><path d="M 86.332031 -1.007812 L 224.894531 11.757812 L 213.4375 136.101562 L 74.875 123.335938 Z M 86.332031 -1.007812 " clip-rule="nonzero"/></clipPath><clipPath id="e9645276c0"><path d="M 86.332031 -1.007812 L 224.894531 11.757812 L 213.4375 136.101562 L 74.875 123.335938 Z M 86.332031 -1.007812 " clip-rule="nonzero"/></clipPath><clipPath id="b02a89c088"><path d="M 0.160156 18 L 88 18 L 88 80 L 0.160156 80 Z M 0.160156 18 " clip-rule="nonzero"/></clipPath><clipPath id="a599064c73"><rect x="0" width="229" y="0" height="138"/></clipPath></defs><g transform="matrix(1, 0, 0, 1, 14, 6)"><g clip-path="url(#a599064c73)"><g clip-path="url(#a0591c81a1)"><g clip-path="url(#2e424a9242)"><g clip-path="url(#6fc47027d2)"><path fill="#000000" d="M 98.503906 23.722656 C 98.503906 23.722656 95.742188 21.761719 95.03125 24.9375 C 95.03125 24.9375 101.480469 42.488281 101.917969 40.347656 C 102.351562 38.210938 98.503906 23.722656 98.503906 23.722656 M 100.222656 22.941406 C 100.222656 22.941406 94.414062 14.398438 92.488281 25.054688 L 131.007812 128.464844 Z M 100.222656 22.941406 " fill-opacity="1" fill-rule="evenodd"/></g></g></g><g clip-path="url(#d7b587681c)"><g clip-path="url(#bcd57efb09)"><g clip-path="url(#e9645276c0)"><path fill="#e77373" d="M 193.1875 67.984375 C 194.273438 66.691406 195.328125 65.234375 196.347656 63.613281 C 203.550781 52.179688 204.246094 41.238281 201.90625 32.933594 C 200.828125 29.105469 199.105469 25.839844 197.078125 23.359375 C 195.089844 20.917969 192.816406 19.234375 190.597656 18.527344 C 188.570312 17.882812 186.585938 18.058594 184.917969 19.230469 C 180.460938 22.367188 182.304688 39.753906 187.894531 55.730469 C 189.398438 60.03125 191.179688 64.214844 193.1875 67.984375 M 101.511719 26.175781 C 101.589844 26.109375 129.175781 2.949219 141.003906 38.0625 C 144.832031 49.425781 150.503906 59.117188 156.988281 65.925781 C 161.671875 70.84375 166.777344 74.246094 171.910156 75.667969 C 176.972656 77.070312 182.078125 76.535156 186.835938 73.613281 C 188.640625 72.5 190.394531 71.050781 192.085938 69.234375 C 189.925781 65.25 188.019531 60.8125 186.429688 56.253906 C 180.640625 39.699219 179.019531 21.476562 184.027344 17.957031 C 186.121094 16.484375 188.582031 16.25 191.070312 17.042969 C 193.578125 17.84375 196.105469 19.699219 198.292969 22.378906 C 200.449219 25.019531 202.277344 28.476562 203.410156 32.519531 C 205.851562 41.183594 205.140625 52.582031 197.671875 64.445312 C 196.488281 66.320312 195.257812 67.988281 193.984375 69.453125 L 194.164062 69.765625 C 196.558594 73.949219 199.242188 77.519531 202.140625 80.015625 C 206.792969 84.015625 212.023438 85.203125 217.519531 81.566406 L 218.378906 82.867188 C 212.175781 86.976562 206.3125 85.667969 201.121094 81.203125 C 198.109375 78.617188 195.34375 74.949219 192.878906 70.667969 C 191.195312 72.421875 189.445312 73.84375 187.648438 74.949219 C 182.488281 78.117188 176.96875 78.695312 171.488281 77.183594 C 166.078125 75.683594 160.730469 72.132812 155.851562 67.011719 C 149.210938 60.042969 143.417969 50.144531 139.515625 38.570312 C 128.414062 5.625 102.03125 27.757812 101.957031 27.820312 Z M 99.234375 29.378906 C 99.199219 29.40625 89.179688 38.496094 84.007812 25.234375 L 85.457031 24.671875 C 89.808594 35.839844 99.070312 27.523438 99.097656 27.503906 Z M 99.234375 29.378906 " fill-opacity="1" fill-rule="nonzero"/></g></g></g><g clip-path="url(#b02a89c088)"><g fill="#e77373" fill-opacity="1"><g transform="translate(9.023121, 69.392042)"><g><path d="M 75.5625 -45.859375 C 75.832031 -45.648438 76.078125 -45.414062 76.296875 -45.15625 C 76.515625 -44.894531 76.660156 -44.570312 76.734375 -44.1875 C 76.816406 -43.769531 76.675781 -43.445312 76.3125 -43.21875 C 76.101562 -43.101562 75.890625 -43.082031 75.671875 -43.15625 C 75.460938 -43.226562 75.304688 -43.378906 75.203125 -43.609375 C 74.941406 -44.265625 74.566406 -44.769531 74.078125 -45.125 C 73.585938 -45.488281 73.050781 -45.804688 72.46875 -46.078125 C 71.1875 -46.691406 69.867188 -47.179688 68.515625 -47.546875 C 67.160156 -47.921875 65.800781 -48.234375 64.4375 -48.484375 C 62.164062 -48.878906 59.148438 -49.082031 55.390625 -49.09375 C 51.640625 -49.101562 47.457031 -48.894531 42.84375 -48.46875 C 38.238281 -48.050781 33.535156 -47.390625 28.734375 -46.484375 C 23.941406 -45.585938 19.363281 -44.414062 15 -42.96875 C 10.632812 -41.53125 6.816406 -39.800781 3.546875 -37.78125 C 0.273438 -35.757812 -2.128906 -33.421875 -3.671875 -30.765625 C -4.972656 -28.460938 -5.164062 -26.078125 -4.25 -23.609375 C -3.59375 -21.921875 -2.679688 -20.394531 -1.515625 -19.03125 C 0.222656 -16.988281 2.132812 -15.128906 4.21875 -13.453125 C 5.988281 -11.972656 7.765625 -10.488281 9.546875 -9 C 11.273438 -7.5625 13.015625 -6.109375 14.765625 -4.640625 C 16.710938 -2.972656 18.628906 -1.28125 20.515625 0.4375 C 20.679688 0.59375 20.859375 0.742188 21.046875 0.890625 C 22.066406 1.773438 22.972656 2.757812 23.765625 3.84375 C 24.566406 5.101562 24.742188 6.085938 24.296875 6.796875 C 23.847656 7.515625 22.96875 8.019531 21.65625 8.3125 C 20.34375 8.613281 18.804688 8.75 17.046875 8.71875 C 15.296875 8.6875 13.523438 8.53125 11.734375 8.25 C 9.953125 7.976562 8.363281 7.625 6.96875 7.1875 C 5.570312 6.757812 4.582031 6.300781 4 5.8125 C 2.820312 4.800781 2.707031 3.691406 3.65625 2.484375 C 4.675781 1.242188 5.941406 0.320312 7.453125 -0.28125 C 9.640625 -1.21875 11.875 -1.367188 14.15625 -0.734375 C 14.601562 -0.585938 15.035156 -0.394531 15.453125 -0.15625 C 15.484375 -0.132812 15.515625 -0.109375 15.546875 -0.078125 C 15.660156 -0.0234375 15.738281 0.0546875 15.78125 0.171875 C 15.820312 0.285156 15.8125 0.421875 15.75 0.578125 C 15.570312 0.796875 15.351562 0.863281 15.09375 0.78125 C 14.84375 0.695312 14.601562 0.597656 14.375 0.484375 C 12.78125 -0.242188 11.160156 -0.351562 9.515625 0.15625 C 7.867188 0.675781 6.492188 1.640625 5.390625 3.046875 C 4.929688 3.710938 4.929688 4.28125 5.390625 4.75 C 5.859375 5.226562 6.5625 5.625 7.5 5.9375 C 8.4375 6.25 9.367188 6.488281 10.296875 6.65625 C 11.234375 6.820312 11.925781 6.925781 12.375 6.96875 C 12.46875 6.96875 12.535156 6.972656 12.578125 6.984375 C 12.660156 6.984375 12.769531 6.992188 12.90625 7.015625 C 13.5 7.117188 14.304688 7.222656 15.328125 7.328125 C 16.359375 7.441406 17.414062 7.503906 18.5 7.515625 C 19.59375 7.535156 20.523438 7.429688 21.296875 7.203125 C 22.066406 6.972656 22.488281 6.570312 22.5625 6 C 22.644531 5.425781 22.179688 4.597656 21.171875 3.515625 C 20.109375 2.378906 18.984375 1.273438 17.796875 0.203125 C 14.835938 -2.453125 11.820312 -5.023438 8.75 -7.515625 C 7.632812 -8.441406 6.523438 -9.363281 5.421875 -10.28125 C 3.566406 -11.820312 1.742188 -13.410156 -0.046875 -15.046875 C -1.703125 -16.546875 -3.179688 -18.203125 -4.484375 -20.015625 C -5.398438 -21.335938 -6.066406 -22.773438 -6.484375 -24.328125 C -7.097656 -26.867188 -6.707031 -29.25 -5.3125 -31.46875 C -3.789062 -33.957031 -1.527344 -36.191406 1.46875 -38.171875 C 4.46875 -40.148438 7.960938 -41.875 11.953125 -43.34375 C 15.941406 -44.8125 20.207031 -46.039062 24.75 -47.03125 C 29.300781 -48.019531 33.898438 -48.769531 38.546875 -49.28125 C 43.191406 -49.789062 47.65625 -50.066406 51.9375 -50.109375 C 56.21875 -50.160156 60.101562 -49.976562 63.59375 -49.5625 C 67.082031 -49.144531 69.957031 -48.507812 72.21875 -47.65625 C 73.394531 -47.238281 74.507812 -46.640625 75.5625 -45.859375 Z M 75.5625 -45.859375 "/></g></g></g></g><g fill="#03142c" fill-opacity="1"><g transform="translate(31.026355, 68.596363)"><g><path d="M 0.28125 -2.65625 C -0.664062 -2.625 -1.160156 -3.101562 -1.203125 -4.09375 C -1.242188 -5.300781 -0.535156 -7.453125 0.921875 -10.546875 C 0.972656 -10.679688 1.078125 -10.753906 1.234375 -10.765625 C 1.859375 -10.785156 2.179688 -10.546875 2.203125 -10.046875 C 2.210938 -9.867188 2.171875 -9.648438 2.078125 -9.390625 C 2.035156 -9.304688 1.5625 -7.96875 0.65625 -5.375 C 0.5 -4.945312 0.425781 -4.632812 0.4375 -4.4375 C 0.445312 -4.21875 0.550781 -4.113281 0.75 -4.125 C 1.476562 -4.15625 3.320312 -6.03125 6.28125 -9.75 C 6.65625 -10.257812 7.035156 -10.519531 7.421875 -10.53125 C 7.992188 -10.550781 8.289062 -10.351562 8.3125 -9.9375 C 8.3125 -9.769531 8.15625 -9.160156 7.84375 -8.109375 C 7.414062 -6.660156 7.207031 -5.828125 7.21875 -5.609375 C 7.226562 -5.285156 7.34375 -5.128906 7.5625 -5.140625 C 8.113281 -5.160156 9.671875 -6.191406 12.234375 -8.234375 C 12.378906 -8.367188 12.507812 -8.441406 12.625 -8.453125 C 12.875 -8.460938 13.003906 -8.253906 13.015625 -7.828125 C 13.015625 -7.722656 12.984375 -7.628906 12.921875 -7.546875 C 11.566406 -6.296875 10.410156 -5.335938 9.453125 -4.671875 C 8.578125 -4.066406 7.789062 -3.753906 7.09375 -3.734375 L 6.875 -3.71875 C 5.84375 -3.90625 5.300781 -4.691406 5.25 -6.078125 C 4.195312 -5.066406 3.316406 -4.25 2.609375 -3.625 C 1.910156 -3.007812 1.132812 -2.6875 0.28125 -2.65625 Z M 0.28125 -2.65625 "/></g></g></g><g fill="#03142c" fill-opacity="1"><g transform="translate(43.295177, 68.152698)"><g><path d="M 5.703125 -6.515625 C 5.203125 -5.859375 4.59375 -5.253906 3.875 -4.703125 C 3.164062 -4.148438 2.359375 -3.765625 1.453125 -3.546875 C 0.546875 -3.328125 -0.164062 -3.367188 -0.6875 -3.671875 C -1.207031 -3.972656 -1.328125 -4.675781 -1.046875 -5.78125 C -0.691406 -6.925781 -0.183594 -8.023438 0.46875 -9.078125 C 0.613281 -9.296875 0.835938 -9.457031 1.140625 -9.5625 C 1.359375 -9.625 1.550781 -9.59375 1.71875 -9.46875 C 1.882812 -9.351562 1.945312 -9.203125 1.90625 -9.015625 C 1.78125 -8.648438 1.632812 -8.28125 1.46875 -7.90625 C 1.300781 -7.539062 1.1875 -7.304688 1.125 -7.203125 C 0.800781 -6.554688 0.582031 -5.882812 0.46875 -5.1875 C 0.476562 -4.789062 1.007812 -4.785156 2.0625 -5.171875 C 3.125 -5.554688 4.140625 -6.226562 5.109375 -7.1875 C 6.085938 -8.15625 6.554688 -8.445312 6.515625 -8.0625 C 6.484375 -7.6875 6.210938 -7.171875 5.703125 -6.515625 Z M 2.921875 -11.421875 C 2.867188 -11.378906 2.765625 -11.320312 2.609375 -11.25 C 2.460938 -11.1875 2.300781 -11.140625 2.125 -11.109375 C 1.957031 -11.085938 1.820312 -11.113281 1.71875 -11.1875 C 1.613281 -11.269531 1.601562 -11.429688 1.6875 -11.671875 C 1.832031 -12.078125 1.988281 -12.441406 2.15625 -12.765625 C 2.320312 -13.085938 2.53125 -13.445312 2.78125 -13.84375 C 2.96875 -14.007812 3.164062 -14.101562 3.375 -14.125 C 3.582031 -14.15625 3.753906 -14.109375 3.890625 -13.984375 C 4.023438 -13.867188 4.070312 -13.695312 4.03125 -13.46875 C 3.84375 -12.675781 3.472656 -11.992188 2.921875 -11.421875 Z M 2.921875 -11.421875 "/></g></g></g><g fill="#03142c" fill-opacity="1"><g transform="translate(49.116151, 67.942201)"><g><path d="M 9.078125 -7.5625 C 7.796875 -5.9375 6.53125 -4.722656 5.28125 -3.921875 C 4.03125 -3.128906 2.671875 -2.832031 1.203125 -3.03125 C -0.261719 -3.238281 -0.90625 -4.203125 -0.71875 -5.921875 C -0.5625 -6.773438 -0.347656 -7.617188 -0.078125 -8.453125 C 0.628906 -10.378906 1.335938 -12.289062 2.046875 -14.1875 C 2.285156 -14.875 2.539062 -15.566406 2.8125 -16.265625 C 2.875 -16.421875 2.929688 -16.570312 2.984375 -16.71875 C 3.085938 -16.976562 3.1875 -17.238281 3.28125 -17.5 C 3.425781 -17.945312 3.242188 -18.171875 2.734375 -18.171875 C 2.441406 -18.160156 2.160156 -18.148438 1.890625 -18.140625 C 1.753906 -18.128906 1.609375 -18.125 1.453125 -18.125 C 1.296875 -18.09375 1.140625 -18.066406 0.984375 -18.046875 C 0.722656 -18.015625 0.46875 -17.992188 0.21875 -17.984375 C -0.0273438 -17.972656 -0.265625 -18.03125 -0.484375 -18.15625 C -0.546875 -18.164062 -0.59375 -18.195312 -0.625 -18.25 C -0.664062 -18.3125 -0.691406 -18.378906 -0.703125 -18.453125 C -0.679688 -18.492188 -0.644531 -18.539062 -0.59375 -18.59375 C -0.550781 -18.644531 -0.5 -18.6875 -0.4375 -18.71875 C -0.226562 -18.8125 -0.00390625 -18.878906 0.234375 -18.921875 C 0.859375 -18.972656 1.472656 -19.019531 2.078125 -19.0625 C 2.316406 -19.070312 2.523438 -19.082031 2.703125 -19.09375 C 3.097656 -19.101562 3.394531 -19.128906 3.59375 -19.171875 C 3.789062 -19.210938 3.941406 -19.320312 4.046875 -19.5 C 4.160156 -19.675781 4.289062 -19.957031 4.4375 -20.34375 C 4.519531 -20.539062 4.625 -20.765625 4.75 -21.015625 C 5.039062 -21.722656 5.34375 -22.441406 5.65625 -23.171875 C 5.789062 -23.515625 5.9375 -23.84375 6.09375 -24.15625 C 6.207031 -24.46875 6.398438 -24.710938 6.671875 -24.890625 C 6.941406 -25.023438 7.175781 -25.023438 7.375 -24.890625 C 7.425781 -24.847656 7.472656 -24.785156 7.515625 -24.703125 C 7.554688 -24.617188 7.578125 -24.539062 7.578125 -24.46875 C 7.585938 -24.082031 7.503906 -23.691406 7.328125 -23.296875 C 7.285156 -23.222656 7.238281 -23.128906 7.1875 -23.015625 C 7.082031 -22.648438 6.960938 -22.28125 6.828125 -21.90625 C 6.554688 -21.21875 6.304688 -20.515625 6.078125 -19.796875 C 6.003906 -19.660156 6.003906 -19.546875 6.078125 -19.453125 C 6.148438 -19.359375 6.25 -19.3125 6.375 -19.3125 C 7.082031 -19.320312 7.773438 -19.335938 8.453125 -19.359375 C 8.804688 -19.367188 9.15625 -19.382812 9.5 -19.40625 C 10.59375 -19.414062 11.035156 -19.273438 10.828125 -18.984375 C 10.691406 -18.804688 10.535156 -18.703125 10.359375 -18.671875 C 10.179688 -18.640625 10.003906 -18.632812 9.828125 -18.65625 C 9.722656 -18.65625 9.613281 -18.648438 9.5 -18.640625 C 8.382812 -18.535156 7.28125 -18.457031 6.1875 -18.40625 C 5.675781 -18.382812 5.347656 -18.140625 5.203125 -17.671875 C 5.035156 -17.234375 4.875 -16.785156 4.71875 -16.328125 C 4.488281 -15.742188 4.273438 -15.175781 4.078125 -14.625 C 3.867188 -14.101562 3.664062 -13.570312 3.46875 -13.03125 C 2.957031 -11.6875 2.457031 -10.332031 1.96875 -8.96875 C 1.675781 -8.082031 1.457031 -7.179688 1.3125 -6.265625 C 0.9375 -4.578125 1.597656 -3.957031 3.296875 -4.40625 C 4.953125 -4.875 6.660156 -6.144531 8.421875 -8.21875 C 9.203125 -8.757812 9.421875 -8.539062 9.078125 -7.5625 Z M 9.078125 -7.5625 "/></g></g></g><g fill="#03142c" fill-opacity="1"><g transform="translate(57.593878, 67.63563)"><g><path d="M 13.109375 -13.40625 C 13.222656 -13.414062 13.332031 -13.375 13.4375 -13.28125 C 13.539062 -13.1875 13.570312 -13.078125 13.53125 -12.953125 C 13.46875 -12.785156 13.394531 -12.625 13.3125 -12.46875 C 11.988281 -9.988281 10.429688 -7.65625 8.640625 -5.46875 C 8.179688 -4.90625 7.679688 -4.367188 7.140625 -3.859375 C 6.878906 -3.609375 6.570312 -3.414062 6.21875 -3.28125 C 5.59375 -2.976562 5.097656 -2.953125 4.734375 -3.203125 C 4.378906 -3.460938 4.210938 -3.929688 4.234375 -4.609375 C 4.253906 -4.710938 4.273438 -4.820312 4.296875 -4.9375 C 4.304688 -5.09375 4.3125 -5.265625 4.3125 -5.453125 C 4.320312 -5.640625 4.289062 -5.84375 4.21875 -6.0625 C 3.957031 -5.8125 3.710938 -5.570312 3.484375 -5.34375 C 2.992188 -4.851562 2.519531 -4.378906 2.0625 -3.921875 C 1.550781 -3.410156 0.929688 -3.195312 0.203125 -3.28125 C -0.285156 -3.351562 -0.578125 -3.617188 -0.671875 -4.078125 C -0.734375 -4.453125 -0.75 -4.828125 -0.71875 -5.203125 C -0.5625 -6.847656 -0.210938 -8.453125 0.328125 -10.015625 C 0.421875 -10.253906 0.554688 -10.457031 0.734375 -10.625 C 0.941406 -10.863281 1.207031 -10.929688 1.53125 -10.828125 C 1.875 -10.722656 2.019531 -10.484375 1.96875 -10.109375 C 1.90625 -9.816406 1.835938 -9.515625 1.765625 -9.203125 C 1.742188 -9.097656 1.726562 -8.988281 1.71875 -8.875 C 1.488281 -7.914062 1.332031 -7.175781 1.25 -6.65625 C 1.164062 -6.144531 1.132812 -5.789062 1.15625 -5.59375 C 1.175781 -5.40625 1.234375 -5.351562 1.328125 -5.4375 C 1.679688 -5.625 1.988281 -5.867188 2.25 -6.171875 C 2.519531 -6.484375 2.765625 -6.789062 2.984375 -7.09375 C 3.179688 -7.382812 3.394531 -7.671875 3.625 -7.953125 C 3.851562 -8.222656 4.070312 -8.5 4.28125 -8.78125 C 4.46875 -9.039062 4.664062 -9.289062 4.875 -9.53125 C 5.070312 -9.769531 5.300781 -9.972656 5.5625 -10.140625 C 5.894531 -10.316406 6.242188 -10.300781 6.609375 -10.09375 C 6.765625 -10 6.859375 -9.878906 6.890625 -9.734375 C 6.921875 -9.597656 6.910156 -9.445312 6.859375 -9.28125 C 6.742188 -8.6875 6.632812 -8.09375 6.53125 -7.5 C 6.46875 -7.1875 6.40625 -6.882812 6.34375 -6.59375 C 6.300781 -6.351562 6.265625 -6.113281 6.234375 -5.875 C 6.210938 -5.789062 6.210938 -5.703125 6.234375 -5.609375 C 6.265625 -5.523438 6.328125 -5.472656 6.421875 -5.453125 C 6.472656 -5.429688 6.523438 -5.429688 6.578125 -5.453125 C 6.640625 -5.484375 6.695312 -5.519531 6.75 -5.5625 C 7.007812 -5.8125 7.242188 -6.082031 7.453125 -6.375 C 7.898438 -6.976562 8.34375 -7.585938 8.78125 -8.203125 C 9.113281 -8.703125 9.457031 -9.1875 9.8125 -9.65625 C 10.539062 -10.707031 11.289062 -11.738281 12.0625 -12.75 C 12.300781 -13.132812 12.648438 -13.351562 13.109375 -13.40625 Z M 13.109375 -13.40625 "/></g></g></g><g fill="#03142c" fill-opacity="1"><g transform="translate(69.72837, 67.196824)"><g><path d="M 10.5625 -8 C 10.800781 -7.875 10.832031 -7.546875 10.65625 -7.015625 C 10.375 -6.628906 10.070312 -6.265625 9.75 -5.921875 C 9.4375 -5.585938 9.09375 -5.285156 8.71875 -5.015625 C 8.6875 -5.003906 8.671875 -4.988281 8.671875 -4.96875 C 8.421875 -4.789062 8.148438 -4.632812 7.859375 -4.5 C 5.515625 -3.539062 4.285156 -3.992188 4.171875 -5.859375 C 3.234375 -4.992188 2.601562 -4.460938 2.28125 -4.265625 C 1.507812 -3.765625 0.664062 -3.523438 -0.25 -3.546875 C -0.925781 -3.546875 -1.394531 -3.726562 -1.65625 -4.09375 C -1.914062 -4.46875 -1.910156 -4.976562 -1.640625 -5.625 C -1.242188 -6.644531 -0.648438 -7.5625 0.140625 -8.375 C 1.054688 -9.289062 2.078125 -10.03125 3.203125 -10.59375 C 3.816406 -10.925781 4.460938 -11.070312 5.140625 -11.03125 C 5.816406 -11.007812 6.238281 -10.644531 6.40625 -9.9375 C 6.46875 -9.707031 6.421875 -9.503906 6.265625 -9.328125 C 6.054688 -9.117188 5.800781 -9.066406 5.5 -9.171875 C 5.476562 -9.171875 5.445312 -9.175781 5.40625 -9.1875 C 5.375 -9.195312 5.347656 -9.207031 5.328125 -9.21875 C 5.035156 -9.613281 4.738281 -9.769531 4.4375 -9.6875 C 4.144531 -9.613281 3.84375 -9.472656 3.53125 -9.265625 C 2.019531 -8.316406 0.925781 -7.023438 0.25 -5.390625 C 0.207031 -5.316406 0.179688 -5.238281 0.171875 -5.15625 C 0.160156 -5.070312 0.191406 -5.003906 0.265625 -4.953125 C 0.441406 -4.910156 0.632812 -4.929688 0.84375 -5.015625 C 1.0625 -5.109375 1.273438 -5.242188 1.484375 -5.421875 C 1.703125 -5.597656 1.882812 -5.738281 2.03125 -5.84375 C 2.050781 -5.875 2.0625 -5.890625 2.0625 -5.890625 C 2.757812 -6.523438 3.445312 -7.171875 4.125 -7.828125 C 4.425781 -8.171875 4.804688 -8.375 5.265625 -8.4375 C 5.921875 -8.457031 6.203125 -8.171875 6.109375 -7.578125 C 6.054688 -7.359375 6.003906 -7.132812 5.953125 -6.90625 C 5.722656 -5.945312 5.726562 -5.390625 5.96875 -5.234375 C 6.21875 -5.085938 6.582031 -5.101562 7.0625 -5.28125 C 7.550781 -5.457031 8.035156 -5.785156 8.515625 -6.265625 C 8.992188 -6.753906 9.394531 -7.195312 9.71875 -7.59375 C 10.039062 -7.988281 10.320312 -8.125 10.5625 -8 Z M 10.5625 -8 "/></g></g></g><g fill="#03142c" fill-opacity="1"><g transform="translate(79.624026, 66.838978)"><g><path d="M 6.984375 -7.390625 C 7.285156 -7.734375 7.546875 -7.925781 7.765625 -7.96875 C 7.984375 -8.007812 8.128906 -7.976562 8.203125 -7.875 C 8.273438 -7.769531 8.238281 -7.617188 8.09375 -7.421875 C 7.25 -6.335938 6.300781 -5.390625 5.25 -4.578125 C 4.195312 -3.773438 3.09375 -3.296875 1.9375 -3.140625 C 0.789062 -2.984375 0.0742188 -3.582031 -0.203125 -4.9375 C -0.429688 -6.289062 0.289062 -9.09375 1.96875 -13.34375 C 3.65625 -17.601562 4.976562 -21.097656 5.9375 -23.828125 C 6.03125 -24.066406 6.160156 -24.28125 6.328125 -24.46875 C 6.554688 -24.707031 6.835938 -24.769531 7.171875 -24.65625 C 7.285156 -24.613281 7.398438 -24.535156 7.515625 -24.421875 C 7.628906 -24.316406 7.671875 -24.128906 7.640625 -23.859375 C 3.328125 -12.515625 1.265625 -6.359375 1.453125 -5.390625 C 1.640625 -4.421875 2.28125 -4.203125 3.375 -4.734375 C 4.46875 -5.265625 5.300781 -5.796875 5.875 -6.328125 C 6.457031 -6.867188 6.828125 -7.222656 6.984375 -7.390625 Z M 6.984375 -7.390625 "/></g></g></g><g fill="#03142c" fill-opacity="1"><g transform="translate(87.071888, 66.569649)"><g><path d="M 5.703125 -6.515625 C 5.203125 -5.859375 4.59375 -5.253906 3.875 -4.703125 C 3.164062 -4.148438 2.359375 -3.765625 1.453125 -3.546875 C 0.546875 -3.328125 -0.164062 -3.367188 -0.6875 -3.671875 C -1.207031 -3.972656 -1.328125 -4.675781 -1.046875 -5.78125 C -0.691406 -6.925781 -0.183594 -8.023438 0.46875 -9.078125 C 0.613281 -9.296875 0.835938 -9.457031 1.140625 -9.5625 C 1.359375 -9.625 1.550781 -9.59375 1.71875 -9.46875 C 1.882812 -9.351562 1.945312 -9.203125 1.90625 -9.015625 C 1.78125 -8.648438 1.632812 -8.28125 1.46875 -7.90625 C 1.300781 -7.539062 1.1875 -7.304688 1.125 -7.203125 C 0.800781 -6.554688 0.582031 -5.882812 0.46875 -5.1875 C 0.476562 -4.789062 1.007812 -4.785156 2.0625 -5.171875 C 3.125 -5.554688 4.140625 -6.226562 5.109375 -7.1875 C 6.085938 -8.15625 6.554688 -8.445312 6.515625 -8.0625 C 6.484375 -7.6875 6.210938 -7.171875 5.703125 -6.515625 Z M 2.921875 -11.421875 C 2.867188 -11.378906 2.765625 -11.320312 2.609375 -11.25 C 2.460938 -11.1875 2.300781 -11.140625 2.125 -11.109375 C 1.957031 -11.085938 1.820312 -11.113281 1.71875 -11.1875 C 1.613281 -11.269531 1.601562 -11.429688 1.6875 -11.671875 C 1.832031 -12.078125 1.988281 -12.441406 2.15625 -12.765625 C 2.320312 -13.085938 2.53125 -13.445312 2.78125 -13.84375 C 2.96875 -14.007812 3.164062 -14.101562 3.375 -14.125 C 3.582031 -14.15625 3.753906 -14.109375 3.890625 -13.984375 C 4.023438 -13.867188 4.070312 -13.695312 4.03125 -13.46875 C 3.84375 -12.675781 3.472656 -11.992188 2.921875 -11.421875 Z M 2.921875 -11.421875 "/></g></g></g><g fill="#000000" fill-opacity="1"><g transform="translate(92.895971, 66.359039)"><g/></g></g></g></g></svg>